<?xml version="1.0" encoding="UTF-8" standalone="no" ?>
<!DOCTYPE svg PUBLIC "-//W3C//DTD SVG 1.1//EN" "http://www.w3.org/Graphics/SVG/1.1/DTD/svg11.dtd">
<svg xmlns="http://www.w3.org/2000/svg" xmlns:xlink="http://www.w3.org/1999/xlink" version="1.1" width="1080" height="1080" viewBox="0 0 1080 1080" xml:space="preserve">
<desc>Created with Fabric.js 5.2.4</desc>
<defs>
</defs>
<rect x="0" y="0" width="100%" height="100%" fill="transparent"></rect>
<g transform="matrix(1 0 0 1 540 540)" id="2d1224a3-8f82-462f-a8f6-9d6986ac3169"  >
</g>
<g transform="matrix(1 0 0 1 540 540)" id="ad028664-03a4-4c95-bc9e-434083736217"  >
<rect style="stroke: none; stroke-width: 1; stroke-dasharray: none; stroke-linecap: butt; stroke-dashoffset: 0; stroke-linejoin: miter; stroke-miterlimit: 4; fill: rgb(255,255,255); fill-rule: nonzero; opacity: 1; visibility: hidden;" vector-effect="non-scaling-stroke"  x="-540" y="-540" rx="0" ry="0" width="1080" height="1080" />
</g>
<g transform="matrix(0.13 0 0 -0.13 538.46 503.92)"  >
<path style="stroke: rgb(255,0,0); stroke-width: 1; stroke-dasharray: none; stroke-linecap: butt; stroke-dashoffset: 0; stroke-linejoin: miter; stroke-miterlimit: 4; fill: rgb(255,0,0); fill-rule: nonzero; opacity: 1;" vector-effect="non-scaling-stroke"  transform=" translate(-3093.79, -2208.63)" d="M 2823 2734 L 2829 2695 L 2767 2666 C 2633 2603 2534 2461 2523 2314 C 2517 2240 2525 2170 2539 2170 C 2543 2170 2552 2181 2558 2195 C 2573 2228 2616 2238 2652 2217 C 2680 2201 2681 2201 2691 2224 C 2711 2266 2793 2286 2823 2256 C 2835 2244 2841 2246 2864 2270 C 2888 2296 2927 2317 2935 2308 C 2938 2305 3060 1854 3060 1845 C 3060 1843 3043 1838 3023 1835 C 2960 1824 2848 1789 2799 1765 C 2755 1742 2690 1680 2690 1660 C 2690 1641 2705 1651 2725 1682 C 2736 1700 2772 1728 2806 1747 C 2869 1781 3015 1824 3050 1818 C 3069 1815 3069 1813 3045 1745 C 3032 1707 3021 1668 3020 1660 C 3020 1634 3037 1663 3055 1718 C 3064 1746 3075 1768 3079 1766 C 3083 1763 3092 1736 3099 1705 C 3106 1675 3115 1652 3120 1655 C 3125 1658 3119 1694 3108 1736 C 3097 1777 3090 1814 3094 1817 C 3105 1828 3282 1833 3373 1825 L 3456 1819 L 3484 1734 C 3499 1688 3515 1650 3521 1650 C 3533 1650 3533 1649 3504 1730 C 3490 1769 3478 1809 3477 1818 C 3477 1828 3517 1889 3566 1955 C 3669 2092 3674 2100 3662 2100 C 3658 2100 3614 2046 3564 1980 C 3515 1914 3472 1860 3468 1860 C 3464 1860 3453 1885 3444 1915 L 3426 1970 L 3272 1968 L 3117 1965 L 3103 1925 C 3096 1903 3087 1878 3084 1870 C 3080 1862 3050 1959 3015 2085 C 2956 2306 2954 2315 2973 2323 C 2984 2327 3009 2326 3028 2320 C 3061 2311 3066 2313 3085 2336 C 3101 2357 3118 2364 3157 2367 C 3188 2370 3210 2368 3214 2361 C 3224 2345 3240 2347 3240 2364 C 3240 2397 3328 2427 3345 2400 C 3348 2395 3355 2390 3361 2390 C 3398 2390 3322 2528 3248 2594 C 3158 2676 3083 2704 2952 2704 L 2849 2705 L 2843 2733 C 2834 2778 2816 2779 2823 2734 z M 3030 2638 C 3085 2601 3145 2529 3182 2458 C 3197 2429 3210 2402 3210 2398 C 3210 2393 3190 2390 3166 2390 C 3138 2390 3114 2383 3097 2370 C 3083 2359 3070 2350 3067 2350 C 3065 2350 3052 2378 3040 2413 C 3010 2493 2954 2606 2924 2646 C 2911 2663 2900 2679 2900 2682 C 2900 2696 2990 2666 3030 2638 z M 3136 2651 C 3212 2615 3273 2561 3311 2495 C 3327 2468 3340 2442 3340 2438 C 3340 2433 3326 2430 3310 2430 C 3293 2430 3268 2423 3254 2414 C 3241 2405 3228 2399 3227 2401 C 3226 2403 3211 2434 3194 2470 C 3157 2547 3093 2622 3030 2663 L 2985 2692 L 3030 2686 C 3055 2682 3103 2666 3136 2651 z M 2899 2645 C 2945 2592 3040 2393 3040 2348 C 3040 2344 3018 2340 2991 2340 C 2959 2340 2927 2332 2896 2315 C 2870 2301 2847 2290 2846 2290 C 2844 2290 2836 2320 2829 2358 C 2811 2451 2811 2642 2829 2663 C 2849 2688 2865 2684 2899 2645 z M 2804 2628 C 2801 2610 2797 2589 2795 2583 C 2791 2571 2804 2421 2816 2330 L 2822 2285 L 2778 2284 C 2754 2284 2722 2275 2707 2266 C 2681 2248 2681 2248 2674 2275 C 2661 2328 2676 2482 2699 2535 C 2719 2581 2784 2660 2802 2660 C 2806 2660 2807 2645 2804 2628 z M 2701 2579 C 2666 2519 2647 2424 2652 2329 L 2656 2241 L 2618 2242 C 2594 2242 2571 2235 2558 2224 L 2537 2205 L 2542 2296 C 2545 2375 2551 2397 2580 2456 C 2610 2518 2704 2629 2716 2617 C 2719 2615 2712 2597 2701 2579 z M 3430 1897 L 3446 1845 L 3273 1845 C 3178 1845 3100 1848 3100 1851 C 3100 1854 3107 1877 3116 1903 L 3132 1950 L 3273 1950 L 3415 1950 L 3430 1897 z" stroke-linecap="round" />
</g>
<g transform="matrix(0.13 0 0 -0.13 402.17 629.82)"  >
<path style="stroke: none; stroke-width: 1; stroke-dasharray: none; stroke-linecap: butt; stroke-dashoffset: 0; stroke-linejoin: miter; stroke-miterlimit: 4; fill: rgb(255,0,0); fill-rule: nonzero; opacity: 1;" vector-effect="non-scaling-stroke"  transform=" translate(-2060, -1275)" d="M 1950 1315 C 1950 1177 1973 1140 2060 1140 C 2147 1140 2170 1177 2170 1315 L 2170 1410 L 2140 1410 L 2110 1410 L 2110 1331 C 2110 1227 2100 1200 2060 1200 C 2020 1200 2010 1227 2010 1331 L 2010 1410 L 1980 1410 L 1950 1410 L 1950 1315 z" stroke-linecap="round" />
</g>
<g transform="matrix(0.13 0 0 -0.13 521.43 629.91)"  >
<path style="stroke: none; stroke-width: 1; stroke-dasharray: none; stroke-linecap: butt; stroke-dashoffset: 0; stroke-linejoin: miter; stroke-miterlimit: 4; fill: rgb(255,0,0); fill-rule: nonzero; opacity: 1;" vector-effect="non-scaling-stroke"  transform=" translate(-2955.03, -1274.32)" d="M 2893 1395 C 2843 1373 2818 1326 2823 1261 C 2826 1214 2832 1202 2863 1173 C 2895 1144 2906 1140 2955 1140 C 3004 1140 3015 1144 3047 1173 C 3078 1202 3084 1214 3087 1261 C 3092 1327 3070 1368 3017 1393 C 2975 1413 2936 1414 2893 1395 z M 2985 1344 C 3008 1335 3030 1287 3023 1259 C 3014 1221 2990 1200 2955 1200 C 2905 1200 2873 1249 2891 1298 C 2908 1343 2942 1360 2985 1344 z" stroke-linecap="round" />
</g>
<g transform="matrix(0.13 0 0 -0.13 560 630.33)"  >
<path style="stroke: none; stroke-width: 1; stroke-dasharray: none; stroke-linecap: butt; stroke-dashoffset: 0; stroke-linejoin: miter; stroke-miterlimit: 4; fill: rgb(255,0,0); fill-rule: nonzero; opacity: 1;" vector-effect="non-scaling-stroke"  transform=" translate(-3243.68, -1271.18)" d="M 3215 1403 C 3151 1387 3128 1309 3175 1271 C 3189 1260 3214 1249 3230 1245 C 3263 1238 3285 1216 3275 1200 C 3265 1183 3220 1189 3184 1211 L 3150 1232 L 3141 1208 C 3111 1132 3297 1107 3339 1182 C 3364 1226 3345 1260 3280 1292 C 3250 1307 3225 1325 3225 1332 C 3225 1351 3278 1354 3305 1336 C 3327 1321 3329 1322 3338 1349 C 3347 1374 3345 1379 3325 1388 C 3294 1402 3240 1410 3215 1403 z" stroke-linecap="round" />
</g>
<g transform="matrix(0.13 0 0 -0.13 289.59 630.5)"  >
<path style="stroke: none; stroke-width: 1; stroke-dasharray: none; stroke-linecap: butt; stroke-dashoffset: 0; stroke-linejoin: miter; stroke-miterlimit: 4; fill: rgb(255,0,0); fill-rule: nonzero; opacity: 1;" vector-effect="non-scaling-stroke"  transform=" translate(-1215.57, -1270)" d="M 1110 1270 L 1110 1140 L 1145 1140 C 1179 1140 1180 1141 1180 1180 C 1180 1212 1184 1220 1198 1220 C 1211 1220 1222 1207 1233 1180 C 1247 1144 1252 1140 1284 1140 C 1304 1140 1320 1142 1320 1145 C 1320 1148 1311 1169 1300 1190 L 1280 1230 L 1300 1250 C 1331 1281 1327 1344 1294 1375 C 1270 1397 1258 1400 1189 1400 L 1110 1400 L 1110 1270 z M 1235 1340 C 1255 1333 1261 1324 1258 1307 C 1256 1289 1248 1284 1218 1282 C 1182 1279 1180 1280 1180 1309 C 1180 1325 1186 1341 1193 1343 C 1199 1346 1206 1349 1207 1349 C 1208 1350 1221 1345 1235 1340 z" stroke-linecap="round" />
</g>
<g transform="matrix(0.13 0 0 -0.13 327.62 630.5)"  >
<path style="stroke: none; stroke-width: 1; stroke-dasharray: none; stroke-linecap: butt; stroke-dashoffset: 0; stroke-linejoin: miter; stroke-miterlimit: 4; fill: rgb(255,0,0); fill-rule: nonzero; opacity: 1;" vector-effect="non-scaling-stroke"  transform=" translate(-1501.38, -1270)" d="M 1461 1378 C 1456 1365 1436 1315 1417 1265 C 1398 1216 1379 1167 1375 1158 C 1369 1143 1374 1140 1403 1140 C 1430 1140 1440 1145 1445 1160 C 1450 1176 1460 1180 1500 1180 C 1540 1180 1550 1176 1555 1160 C 1560 1145 1570 1140 1596 1140 C 1615 1140 1630 1143 1630 1147 C 1630 1151 1609 1209 1583 1277 L 1537 1400 L 1503 1400 C 1478 1400 1467 1395 1461 1378 z M 1514 1286 C 1517 1273 1523 1255 1526 1246 C 1531 1233 1525 1230 1500 1230 C 1475 1230 1469 1233 1474 1246 C 1477 1255 1483 1273 1486 1286 C 1489 1299 1496 1310 1500 1310 C 1504 1310 1511 1299 1514 1286 z" stroke-linecap="round" />
</g>
<g transform="matrix(0.13 0 0 -0.13 365.82 630.5)"  >
<path style="stroke: none; stroke-width: 1; stroke-dasharray: none; stroke-linecap: butt; stroke-dashoffset: 0; stroke-linejoin: miter; stroke-miterlimit: 4; fill: rgb(255,0,0); fill-rule: nonzero; opacity: 1;" vector-effect="non-scaling-stroke"  transform=" translate(-1787.5, -1270)" d="M 1678 1358 C 1677 1334 1676 1276 1675 1228 L 1675 1140 L 1708 1140 C 1739 1140 1740 1141 1740 1185 L 1740 1230 L 1790 1230 L 1840 1230 L 1840 1185 C 1840 1142 1841 1140 1870 1140 L 1900 1140 L 1900 1270 L 1900 1400 L 1870 1400 C 1840 1400 1840 1399 1840 1345 L 1840 1290 L 1790 1290 L 1740 1290 L 1740 1345 C 1740 1399 1740 1400 1710 1400 C 1682 1400 1680 1398 1678 1358 z" stroke-linecap="round" />
</g>
<g transform="matrix(0.13 0 0 -0.13 434.27 630.5)"  >
<path style="stroke: none; stroke-width: 1; stroke-dasharray: none; stroke-linecap: butt; stroke-dashoffset: 0; stroke-linejoin: miter; stroke-miterlimit: 4; fill: rgb(255,0,0); fill-rule: nonzero; opacity: 1;" vector-effect="non-scaling-stroke"  transform=" translate(-2300, -1270)" d="M 2220 1270 L 2220 1140 L 2300 1140 L 2380 1140 L 2380 1170 C 2380 1199 2379 1200 2330 1200 L 2280 1200 L 2280 1300 L 2280 1400 L 2250 1400 L 2220 1400 L 2220 1270 z" stroke-linecap="round" />
</g>
<g transform="matrix(0.13 0 0 -0.13 481.48 630.5)"  >
<path style="stroke: none; stroke-width: 1; stroke-dasharray: none; stroke-linecap: butt; stroke-dashoffset: 0; stroke-linejoin: miter; stroke-miterlimit: 4; fill: rgb(255,0,0); fill-rule: nonzero; opacity: 1;" vector-effect="non-scaling-stroke"  transform=" translate(-2655, -1270)" d="M 2540 1270 L 2540 1140 L 2575 1140 C 2610 1140 2610 1140 2610 1185 L 2610 1230 L 2660 1230 L 2710 1230 L 2710 1185 C 2710 1142 2711 1140 2740 1140 L 2770 1140 L 2770 1270 L 2770 1400 L 2740 1400 C 2710 1400 2710 1399 2710 1345 L 2710 1290 L 2660 1290 L 2610 1290 L 2610 1345 L 2610 1400 L 2575 1400 L 2540 1400 L 2540 1270 z" stroke-linecap="round" />
</g>
<g transform="matrix(0.13 0 0 -0.13 593.76 630.5)"  >
<path style="stroke: none; stroke-width: 1; stroke-dasharray: none; stroke-linecap: butt; stroke-dashoffset: 0; stroke-linejoin: miter; stroke-miterlimit: 4; fill: rgb(255,0,0); fill-rule: nonzero; opacity: 1;" vector-effect="non-scaling-stroke"  transform=" translate(-3496.83, -1270)" d="M 3390 1270 L 3390 1140 L 3425 1140 C 3459 1140 3460 1141 3460 1180 C 3460 1219 3461 1220 3495 1220 C 3576 1220 3623 1279 3596 1345 C 3577 1390 3554 1400 3466 1400 L 3390 1400 L 3390 1270 z M 3515 1340 C 3535 1333 3541 1324 3538 1307 C 3536 1289 3528 1284 3498 1282 C 3462 1279 3460 1280 3460 1309 C 3460 1325 3466 1341 3473 1343 C 3479 1346 3486 1349 3487 1349 C 3488 1350 3501 1345 3515 1340 z" stroke-linecap="round" />
</g>
<g transform="matrix(0.13 0 0 -0.13 619.08 630.5)"  >
<path style="stroke: none; stroke-width: 1; stroke-dasharray: none; stroke-linecap: butt; stroke-dashoffset: 0; stroke-linejoin: miter; stroke-miterlimit: 4; fill: rgb(255,0,0); fill-rule: nonzero; opacity: 1;" vector-effect="non-scaling-stroke"  transform=" translate(-3685, -1270)" d="M 3650 1270 L 3650 1140 L 3685 1140 L 3720 1140 L 3720 1270 L 3720 1400 L 3685 1400 L 3650 1400 L 3650 1270 z" stroke-linecap="round" />
</g>
<g transform="matrix(0.13 0 0 -0.13 641.81 630.44)"  >
<path style="stroke: none; stroke-width: 1; stroke-dasharray: none; stroke-linecap: butt; stroke-dashoffset: 0; stroke-linejoin: miter; stroke-miterlimit: 4; fill: rgb(255,0,0); fill-rule: nonzero; opacity: 1;" vector-effect="non-scaling-stroke"  transform=" translate(-3857, -1270.5)" d="M 3762 1373 C 3764 1350 3770 1344 3798 1342 L 3830 1339 L 3830 1239 L 3830 1140 L 3860 1140 L 3890 1140 L 3890 1239 L 3890 1339 L 3923 1342 C 3950 1344 3955 1349 3955 1370 C 3955 1395 3954 1395 3857 1398 L 3759 1401 L 3762 1373 z" stroke-linecap="round" />
</g>
<g transform="matrix(0.13 0 0 -0.13 675.3 630.44)"  >
<path style="stroke: none; stroke-width: 1; stroke-dasharray: none; stroke-linecap: butt; stroke-dashoffset: 0; stroke-linejoin: miter; stroke-miterlimit: 4; fill: rgb(255,0,0); fill-rule: nonzero; opacity: 1;" vector-effect="non-scaling-stroke"  transform=" translate(-4109, -1270.5)" d="M 4027 1278 C 4001 1210 3980 1152 3980 1148 C 3980 1143 3993 1140 4010 1140 C 4029 1140 4043 1147 4050 1160 C 4066 1189 4142 1188 4161 1159 C 4172 1144 4184 1139 4207 1142 L 4238 1145 L 4191 1270 C 4143 1394 4143 1395 4108 1398 L 4074 1401 L 4027 1278 z M 4123 1275 L 4139 1230 L 4109 1230 C 4093 1230 4080 1233 4080 1236 C 4080 1246 4103 1320 4106 1320 C 4107 1320 4115 1300 4123 1275 z" stroke-linecap="round" />
</g>
<g transform="matrix(0.13 0 0 -0.13 709.64 630.5)"  >
<path style="stroke: none; stroke-width: 1; stroke-dasharray: none; stroke-linecap: butt; stroke-dashoffset: 0; stroke-linejoin: miter; stroke-miterlimit: 4; fill: rgb(255,0,0); fill-rule: nonzero; opacity: 1;" vector-effect="non-scaling-stroke"  transform=" translate(-4365.5, -1270)" d="M 4280 1270 L 4280 1140 L 4366 1140 L 4451 1140 L 4448 1168 C 4445 1193 4441 1195 4398 1198 C 4371 1200 4349 1205 4349 1211 C 4348 1216 4346 1225 4345 1230 C 4344 1236 4342 1276 4341 1320 L 4340 1400 L 4310 1400 L 4280 1400 L 4280 1270 z" stroke-linecap="round" />
</g>
<g transform="matrix(0.13 0 0 -0.13 731.08 630.5)"  >
<path style="stroke: none; stroke-width: 1; stroke-dasharray: none; stroke-linecap: butt; stroke-dashoffset: 0; stroke-linejoin: miter; stroke-miterlimit: 4; fill: rgb(255,0,0); fill-rule: nonzero; opacity: 1;" vector-effect="non-scaling-stroke"  transform=" translate(-4525, -1270)" d="M 4490 1270 L 4490 1140 L 4525 1140 L 4560 1140 L 4560 1270 L 4560 1400 L 4525 1400 L 4490 1400 L 4490 1270 z" stroke-linecap="round" />
</g>
<g transform="matrix(0.13 0 0 -0.13 754.2 630.5)"  >
<path style="stroke: none; stroke-width: 1; stroke-dasharray: none; stroke-linecap: butt; stroke-dashoffset: 0; stroke-linejoin: miter; stroke-miterlimit: 4; fill: rgb(255,0,0); fill-rule: nonzero; opacity: 1;" vector-effect="non-scaling-stroke"  transform=" translate(-4700, -1270)" d="M 4602 1373 C 4604 1350 4610 1344 4638 1342 L 4670 1339 L 4670 1239 L 4670 1140 L 4700 1140 L 4730 1140 L 4730 1239 L 4730 1339 L 4763 1342 C 4790 1344 4796 1350 4798 1373 L 4801 1400 L 4700 1400 L 4599 1400 L 4602 1373 z" stroke-linecap="round" />
</g>
<g transform="matrix(0.13 0 0 -0.13 786.99 630.5)"  >
<path style="stroke: none; stroke-width: 1; stroke-dasharray: none; stroke-linecap: butt; stroke-dashoffset: 0; stroke-linejoin: miter; stroke-miterlimit: 4; fill: rgb(255,0,0); fill-rule: nonzero; opacity: 1;" vector-effect="non-scaling-stroke"  transform=" translate(-4946.5, -1270)" d="M 4865 1325 C 4904 1260 4910 1242 4910 1195 L 4910 1140 L 4945 1140 L 4980 1140 L 4980 1193 C 4980 1244 4989 1266 5052 1368 L 5072 1400 L 5038 1400 C 5008 1400 5001 1394 4981 1360 C 4969 1338 4955 1318 4950 1315 C 4946 1312 4930 1330 4916 1355 C 4892 1394 4885 1400 4855 1400 L 4821 1400 L 4865 1325 z" stroke-linecap="round" />
</g>
</svg>