<svg width="527" height="217" viewBox="0 0 527 217" fill="none" xmlns="http://www.w3.org/2000/svg">
<g clip-path="url(#clip0_9800_2278)">
<path d="M227.258 4.62289L228.038 9.69289L219.978 13.4629C202.558 21.6529 189.688 40.1129 188.258 59.2229C187.478 68.8429 188.518 77.9429 190.338 77.9429C190.858 77.9429 192.028 76.5129 192.808 74.6929C194.758 70.4029 200.348 69.1029 205.028 71.8329C208.668 73.9129 208.798 73.9129 210.098 70.9229C212.698 65.4629 223.358 62.8629 227.258 66.7629C228.818 68.3229 229.598 68.0629 232.588 64.9429C235.708 61.5629 240.778 58.8329 241.818 60.0029C242.208 60.3929 258.068 119.023 258.068 120.193C258.068 120.453 255.858 121.103 253.258 121.493C245.068 122.923 230.508 127.473 224.138 130.593C218.418 133.583 209.968 141.643 209.968 144.243C209.968 146.713 211.918 145.413 214.518 141.383C215.948 139.043 220.628 135.403 225.048 132.933C233.238 128.513 252.218 122.923 256.768 123.703C259.238 124.093 259.238 124.353 256.118 133.193C254.428 138.133 252.998 143.203 252.868 144.243C252.868 147.623 255.078 143.853 257.418 136.703C258.588 133.063 260.018 130.203 260.538 130.463C261.058 130.853 262.228 134.363 263.138 138.393C264.048 142.293 265.218 145.283 265.868 144.893C266.518 144.503 265.738 139.823 264.308 134.363C262.878 129.033 261.968 124.223 262.488 123.833C263.918 122.403 286.928 121.753 298.758 122.793L309.548 123.573L313.188 134.623C315.138 140.603 317.218 145.543 317.998 145.543C319.558 145.543 319.558 145.673 315.788 135.143C313.968 130.073 312.408 124.873 312.278 123.703C312.278 122.403 317.478 114.473 323.848 105.893C337.238 88.0829 337.888 87.0429 336.328 87.0429C335.808 87.0429 330.088 94.0629 323.588 102.643C317.218 111.223 311.628 118.243 311.108 118.243C310.588 118.243 309.158 114.993 307.988 111.093L305.648 103.943L285.628 104.203L265.478 104.593L263.658 109.793C262.748 112.653 261.578 115.903 261.188 116.943C260.668 117.983 256.768 105.373 252.218 88.9929C244.548 60.2629 244.288 59.0929 246.758 58.0529C248.188 57.5329 251.438 57.6629 253.908 58.4429C258.198 59.6129 258.848 59.3529 261.318 56.3629C263.398 53.6329 265.608 52.7229 270.678 52.3329C274.708 51.9429 277.568 52.2029 278.088 53.1129C279.388 55.1929 281.468 54.9329 281.468 52.7229C281.468 48.4329 292.908 44.5329 295.118 48.0429C295.508 48.6929 296.418 49.3429 297.198 49.3429C302.008 49.3429 292.128 31.4029 282.508 22.8229C270.808 12.1629 261.058 8.52289 244.028 8.52289L230.638 8.39289L229.858 4.75289C228.688 -1.09711 226.348 -1.22711 227.258 4.62289ZM254.168 17.1029C261.318 21.9129 269.118 31.2729 273.928 40.5029C275.878 44.2729 277.568 47.7829 277.568 48.3029C277.568 48.9529 274.968 49.3429 271.848 49.3429C268.208 49.3429 265.088 50.2529 262.878 51.9429C261.058 53.3729 259.368 54.5429 258.978 54.5429C258.718 54.5429 257.028 50.9029 255.468 46.3529C251.568 35.9529 244.288 21.2629 240.388 16.0629C238.698 13.8529 237.268 11.7729 237.268 11.3829C237.268 9.56289 248.968 13.4629 254.168 17.1029ZM267.948 15.4129C277.828 20.0929 285.758 27.1129 290.698 35.6929C292.778 39.2029 294.468 42.5829 294.468 43.1029C294.468 43.7529 292.648 44.1429 290.568 44.1429C288.358 44.1429 285.108 45.0529 283.288 46.2229C281.598 47.3929 279.908 48.1729 279.778 47.9129C279.648 47.6529 277.698 43.6229 275.488 38.9429C270.678 28.9329 262.358 19.1829 254.168 13.8529L248.318 10.0829L254.168 10.8629C257.418 11.3829 263.658 13.4629 267.948 15.4129ZM237.138 16.1929C243.118 23.0829 255.468 48.9529 255.468 54.8029C255.468 55.3229 252.608 55.8429 249.098 55.8429C244.938 55.8429 240.778 56.8829 236.748 59.0929C233.368 60.9129 230.378 62.3429 230.248 62.3429C229.988 62.3429 228.948 58.4429 228.038 53.5029C225.698 41.4129 225.698 16.5829 228.038 13.8529C230.638 10.6029 232.718 11.1229 237.138 16.1929ZM224.788 18.4029C224.398 20.7429 223.878 23.4729 223.618 24.2529C223.098 25.8129 224.788 45.3129 226.348 57.1429L227.128 62.9929L221.408 63.1229C218.288 63.1229 214.128 64.2929 212.178 65.4629C208.798 67.8029 208.798 67.8029 207.888 64.2929C206.198 57.4029 208.148 37.3829 211.138 30.4929C213.738 24.5129 222.188 14.2429 224.528 14.2429C225.048 14.2429 225.178 16.1929 224.788 18.4029ZM211.398 24.7729C206.848 32.5729 204.378 44.9229 205.028 57.2729L205.548 68.7129L200.608 68.5829C197.488 68.5829 194.498 69.4929 192.808 70.9229L190.078 73.3929L190.728 61.5629C191.118 51.2929 191.898 48.4329 195.668 40.7629C199.568 32.7029 211.788 18.2729 213.348 19.8329C213.738 20.0929 212.828 22.4329 211.398 24.7729ZM306.168 113.433L308.248 120.193H285.758C273.408 120.193 263.268 119.803 263.268 119.413C263.268 119.023 264.178 116.033 265.348 112.653L267.428 106.543H285.758H304.218L306.168 113.433Z" fill="#FF0000" stroke="#FF0000" stroke-width="0.13" stroke-linecap="round"/>
<path d="M111.871 193.619C111.871 211.559 114.861 216.369 126.171 216.369C137.481 216.369 140.471 211.559 140.471 193.619V181.269H136.571H132.671V191.539C132.671 205.059 131.371 208.569 126.171 208.569C120.971 208.569 119.671 205.059 119.671 191.539V181.269H115.771H111.871V193.619Z" fill="#FF0000"/>
<path d="M237.365 183.221C230.865 186.081 227.615 192.191 228.265 200.641C228.655 206.751 229.435 208.311 233.465 212.081C237.625 215.851 239.055 216.371 245.425 216.371C251.795 216.371 253.225 215.851 257.385 212.081C261.415 208.311 262.195 206.751 262.585 200.641C263.235 192.061 260.375 186.731 253.485 183.481C248.025 180.881 242.955 180.751 237.365 183.221ZM249.325 189.851C252.315 191.021 255.175 197.261 254.265 200.901C253.095 205.841 249.975 208.571 245.425 208.571C238.925 208.571 234.765 202.201 237.105 195.831C239.315 189.981 243.735 187.771 249.325 189.851Z" fill="#FF0000"/>
<path d="M280.27 182.193C271.95 184.273 268.96 194.413 275.07 199.353C276.89 200.783 280.14 202.213 282.22 202.733C286.51 203.643 289.37 206.503 288.07 208.583C286.77 210.793 280.92 210.013 276.24 207.153L271.82 204.423L270.65 207.543C266.75 217.423 290.93 220.673 296.39 210.923C299.64 205.203 297.17 200.783 288.72 196.623C284.82 194.673 281.57 192.333 281.57 191.423C281.57 188.953 288.46 188.563 291.97 190.903C294.83 192.853 295.09 192.723 296.26 189.213C297.43 185.963 297.17 185.313 294.57 184.143C290.54 182.323 283.52 181.283 280.27 182.193Z" fill="#FF0000"/>
<path d="M-0.132812 199.5V216.4H4.41719C8.83719 216.4 8.96719 216.27 8.96719 211.2C8.96719 207.04 9.48719 206 11.3072 206C12.9972 206 14.4272 207.69 15.8572 211.2C17.6772 215.88 18.3272 216.4 22.4872 216.4C25.0872 216.4 27.1672 216.14 27.1672 215.75C27.1672 215.36 25.9972 212.63 24.5672 209.9L21.9672 204.7L24.5672 202.1C28.5972 198.07 28.0772 189.88 23.7872 185.85C20.6672 182.99 19.1072 182.6 10.1372 182.6H-0.132812V199.5ZM16.1172 190.4C18.7172 191.31 19.4972 192.48 19.1072 194.69C18.8472 197.03 17.8072 197.68 13.9072 197.94C9.22719 198.33 8.96719 198.2 8.96719 194.43C8.96719 192.35 9.74719 190.27 10.6572 190.01C11.4372 189.62 12.3472 189.23 12.4772 189.23C12.6072 189.1 14.2972 189.75 16.1172 190.4Z" fill="#FF0000"/>
<path d="M46.3696 185.46C45.7196 187.15 43.1196 193.65 40.6496 200.15C38.1796 206.52 35.7096 212.89 35.1896 214.06C34.4096 216.01 35.0596 216.4 38.8296 216.4C42.3396 216.4 43.6396 215.75 44.2896 213.8C44.9396 211.72 46.2396 211.2 51.4396 211.2C56.6396 211.2 57.9396 211.72 58.5896 213.8C59.2396 215.75 60.5396 216.4 63.9196 216.4C66.3896 216.4 68.3396 216.01 68.3396 215.49C68.3396 214.97 65.6096 207.43 62.2296 198.59L56.2496 182.6H51.8296C48.5796 182.6 47.1496 183.25 46.3696 185.46ZM53.2596 197.42C53.6496 199.11 54.4296 201.45 54.8196 202.62C55.4696 204.31 54.6896 204.7 51.4396 204.7C48.1896 204.7 47.4096 204.31 48.0596 202.62C48.4496 201.45 49.2296 199.11 49.6196 197.42C50.0096 195.73 50.9196 194.3 51.4396 194.3C51.9596 194.3 52.8696 195.73 53.2596 197.42Z" fill="#FF0000"/>
<path d="M75.5853 188.06C75.4553 191.18 75.3253 198.72 75.1953 204.96V216.4H79.4853C83.5153 216.4 83.6453 216.27 83.6453 210.55V204.7H90.1453H96.6453V210.55C96.6453 216.14 96.7753 216.4 100.545 216.4H104.445V199.5V182.6H100.545C96.6453 182.6 96.6453 182.73 96.6453 189.75V196.9H90.1453H83.6453V189.75C83.6453 182.73 83.6453 182.6 79.7453 182.6C76.1053 182.6 75.8453 182.86 75.5853 188.06Z" fill="#FF0000"/>
<path d="M147.871 199.5V216.4H158.271H168.671V212.5C168.671 208.73 168.541 208.6 162.171 208.6H155.671V195.6V182.6H151.771H147.871V199.5Z" fill="#FF0000"/>
<path d="M190.531 199.5V216.4H195.081C199.631 216.4 199.631 216.4 199.631 210.55V204.7H206.131H212.631V210.55C212.631 216.14 212.761 216.4 216.531 216.4H220.431V199.5V182.6H216.531C212.631 182.6 212.631 182.73 212.631 189.75V196.9H206.131H199.631V189.75V182.6H195.081H190.531V199.5Z" fill="#FF0000"/>
<path d="M303.871 199.5V216.4H308.421C312.841 216.4 312.971 216.27 312.971 211.2C312.971 206.13 313.101 206 317.521 206C328.051 206 334.161 198.33 330.651 189.75C328.181 183.9 325.191 182.6 313.751 182.6H303.871V199.5ZM320.121 190.4C322.721 191.31 323.501 192.48 323.111 194.69C322.851 197.03 321.811 197.68 317.911 197.94C313.231 198.33 312.971 198.2 312.971 194.43C312.971 192.35 313.751 190.27 314.661 190.01C315.441 189.62 316.351 189.23 316.481 189.23C316.611 189.1 318.301 189.75 320.121 190.4Z" fill="#FF0000"/>
<path d="M338.531 199.5V216.4H343.081H347.631V199.5V182.6H343.081H338.531V199.5Z" fill="#FF0000"/>
<path d="M353.46 186.114C353.72 189.104 354.5 189.884 358.14 190.144L362.3 190.534V203.534V216.404H366.2H370.1V203.534V190.534L374.39 190.144C377.9 189.884 378.55 189.234 378.55 186.504C378.55 183.254 378.42 183.254 365.81 182.864L353.07 182.474L353.46 186.114Z" fill="#FF0000"/>
<path d="M388.641 198.464C385.261 207.304 382.531 214.844 382.531 215.364C382.531 216.014 384.221 216.404 386.431 216.404C388.901 216.404 390.721 215.494 391.631 213.804C393.711 210.034 403.591 210.164 406.061 213.934C407.491 215.884 409.051 216.534 412.041 216.144L416.071 215.754L409.961 199.504C403.721 183.384 403.721 183.254 399.171 182.864L394.751 182.474L388.641 198.464ZM401.121 198.854L403.201 204.704H399.301C397.221 204.704 395.531 204.314 395.531 203.924C395.531 202.624 398.521 193.004 398.911 193.004C399.041 193.004 400.081 195.604 401.121 198.854Z" fill="#FF0000"/>
<path d="M422.523 199.5V216.4H433.703H444.753L444.363 212.76C443.973 209.51 443.453 209.25 437.863 208.86C434.353 208.6 431.493 207.95 431.493 207.17C431.363 206.52 431.103 205.35 430.973 204.7C430.843 203.92 430.583 198.72 430.453 193L430.323 182.6H426.423H422.523V199.5Z" fill="#FF0000"/>
<path d="M450.531 199.5V216.4H455.081H459.631V199.5V182.6H455.081H450.531V199.5Z" fill="#FF0000"/>
<path d="M465.46 186.11C465.72 189.1 466.5 189.88 470.14 190.14L474.3 190.53V203.53V216.4H478.2H482.1V203.53V190.53L486.39 190.14C489.9 189.88 490.68 189.1 490.94 186.11L491.33 182.6H478.2H465.07L465.46 186.11Z" fill="#FF0000"/>
<path d="M500.396 192.35C505.466 200.8 506.246 203.14 506.246 209.25V216.4H510.796H515.346V209.51C515.346 202.88 516.516 200.02 524.706 186.76L527.306 182.6H522.886C518.986 182.6 518.076 183.38 515.476 187.8C513.916 190.66 512.096 193.26 511.446 193.65C510.926 194.04 508.846 191.7 507.026 188.45C503.906 183.38 502.996 182.6 499.096 182.6H494.676L500.396 192.35Z" fill="#FF0000"/>
</g>
<defs>
<clipPath id="clip0_9800_2278">
<rect width="527" height="217" fill="white"/>
</clipPath>
</defs>
</svg>
