<svg xmlns="http://www.w3.org/2000/svg" xmlns:xlink="http://www.w3.org/1999/xlink" viewBox="0 0 309.69 80.23"><defs><style>.cls-1{fill:none;stroke:#b4a171;stroke-miterlimit:10;}.cls-2{fill:url(#Nueva_muestra_de_degradado_12);}.cls-3{fill:#b4a271;}.cls-4{fill:#231f20;}</style><linearGradient id="Nueva_muestra_de_degradado_12" x1="29.06" y1="40.12" x2="51.17" y2="40.12" gradientUnits="userSpaceOnUse"><stop offset="0" stop-color="#e4cda6"/><stop offset="0.1" stop-color="#d9bf97"/><stop offset="0.34" stop-color="#c1a177"/><stop offset="0.58" stop-color="#af8c61"/><stop offset="0.8" stop-color="#a57e53"/><stop offset="1" stop-color="#a17a4e"/></linearGradient></defs><title>Asset 2</title><g id="Layer_2" data-name="Layer 2"><g id="Layer_1-2" data-name="Layer 1"><circle class="cls-1" cx="40.12" cy="40.12" r="39.62"/><path class="cls-2" d="M34.55,12.48V73.24H29.06V7C34.55,7,34.55,12.48,34.55,12.48ZM51.17,18v22s0,11.05-11.05,11.05c5.48,0,5.48-5.49,5.48-5.49V12.48S45.6,7,40.12,7C51.17,7,51.17,18,51.17,18Zm0,44.15v11H45.6V56.7s0-5.57-5.48-5.57C51.17,51.13,51.17,62.19,51.17,62.19Z"/><path class="cls-3" d="M99.86,30.31V49.1L96,49V7.72h16.2q6.84,0,10.46,2.56c2.42,1.7,3.62,4.47,3.62,8.3a10.74,10.74,0,0,1-1.58,6.21,12.06,12.06,0,0,1-5.14,3.91,6.35,6.35,0,0,1,2.87,1.84,8,8,0,0,1,1.55,2.76,13.36,13.36,0,0,1,.66,3.27q.15,1.73.21,3.33c0,1.58.1,2.88.2,3.91a23.44,23.44,0,0,0,.34,2.53,5.76,5.76,0,0,0,.49,1.52,2.26,2.26,0,0,0,.69.84V49l-4.31.06a7.59,7.59,0,0,1-.89-2.87c-.17-1.23-.31-2.51-.4-3.85s-.17-2.65-.23-3.91a23.6,23.6,0,0,0-.32-3.11,6.43,6.43,0,0,0-1.12-2.67,5.15,5.15,0,0,0-1.87-1.52,7.78,7.78,0,0,0-2.44-.69,23,23,0,0,0-2.79-.17ZM112.05,27a16.8,16.8,0,0,0,4-.46,9.11,9.11,0,0,0,3.25-1.46,7.22,7.22,0,0,0,2.18-2.56,8,8,0,0,0,.81-3.73,7.72,7.72,0,0,0-.84-3.8,6.25,6.25,0,0,0-2.24-2.35A9.4,9.4,0,0,0,116,11.4a20.07,20.07,0,0,0-3.76-.34H99.86V27Z"/><path class="cls-3" d="M130.55,49.1,146.82,7.72h4.42L167.1,49.1h-4l-4.77-13H139.46l-4.89,13Zm10.23-16.32H157l-8.11-21.72Z"/><path class="cls-3" d="M172.62,49.1V7.72h3.91V25.48H201V7.72h3.9V49.1H201V28.81H176.53V49.1Z"/><path class="cls-3" d="M214.23,7.72h3.9V32.38q0,7.69,2.88,11.09t9.25,3.39a16,16,0,0,0,5.66-.89,8.74,8.74,0,0,0,3.76-2.7,11.23,11.23,0,0,0,2.07-4.52,28.23,28.23,0,0,0,.63-6.37V7.72h3.91V33.53q0,8.1-4,12.38t-12,4.28q-8.1,0-12.07-4.37t-4-12.29Z"/><path class="cls-3" d="M255.66,49.1V7.72h3.9V45.77h22.19V49.1Z"/><path class="cls-4" d="M96,75.25V56.48h1.5v8.68H110V56.48h1.52V75.25H110V66.49H97.48v8.76Z"/><path class="cls-4" d="M121,65.8a9.26,9.26,0,0,1,.75-3.66A9.52,9.52,0,0,1,123.86,59a10.12,10.12,0,0,1,10.77-2.11A9.81,9.81,0,0,1,137.82,59,9.68,9.68,0,0,1,140,62.15a9.44,9.44,0,0,1,.73,3.71,9.75,9.75,0,0,1-.42,2.86A9.09,9.09,0,0,1,139,71.3a9.67,9.67,0,0,1-3.53,3.17,9.86,9.86,0,0,1-4.65,1.12,10,10,0,0,1-3.8-.74,9.61,9.61,0,0,1-3.18-2.09,9.88,9.88,0,0,1-2.14-3.2A9.73,9.73,0,0,1,121,65.8Zm1.65.06a8.59,8.59,0,0,0,.62,3.2A8.35,8.35,0,0,0,125,71.79a8.17,8.17,0,0,0,2.67,1.8,8.22,8.22,0,0,0,10.76-4.51,8.54,8.54,0,0,0,.61-3.22,8.35,8.35,0,0,0-.61-3.19,8.11,8.11,0,0,0-1.79-2.7A8.5,8.5,0,0,0,134,58.15a8,8,0,0,0-3.15-.65,8.08,8.08,0,0,0-3.13.64A8.56,8.56,0,0,0,125,60a7.93,7.93,0,0,0-1.77,2.68A8.49,8.49,0,0,0,122.63,65.86Z"/><path class="cls-4" d="M159,59.15A10.34,10.34,0,0,0,156.78,58a6.25,6.25,0,0,0-2.09-.38,3.93,3.93,0,0,0-2.79,1,3.31,3.31,0,0,0-1.09,2.52,2.93,2.93,0,0,0,.7,2,9.31,9.31,0,0,0,3,1.76l.4.16a9.61,9.61,0,0,1,3.47,2,4.37,4.37,0,0,1,.92,1.5,5.09,5.09,0,0,1,.32,1.8,4.79,4.79,0,0,1-1.56,3.68,5.64,5.64,0,0,1-4,1.44,7.61,7.61,0,0,1-2.43-.41,10.75,10.75,0,0,1-2.42-1.25V72a11.79,11.79,0,0,0,2.52,1.54,6,6,0,0,0,2.3.5,4.08,4.08,0,0,0,2.91-1A3.56,3.56,0,0,0,158,70.33a3,3,0,0,0-.73-2.09A10.26,10.26,0,0,0,154,66.35a10.31,10.31,0,0,1-3.69-2.25,4.24,4.24,0,0,1-1-2.89,4.64,4.64,0,0,1,1.51-3.58,5.58,5.58,0,0,1,3.93-1.39,7.4,7.4,0,0,1,2.15.31,9,9,0,0,1,2.11.93Z"/><path class="cls-4" d="M168.92,56.48h4.56a7.22,7.22,0,0,1,4.63,1.28,4.57,4.57,0,0,1,1.56,3.76,4.65,4.65,0,0,1-1.51,3.64,5.74,5.74,0,0,1-4,1.36h-3.72v8.73h-1.5Zm1.5,1.27v7.47h2.86a5.73,5.73,0,0,0,3.58-.92A3.45,3.45,0,0,0,178,61.43a3.37,3.37,0,0,0-1.14-2.75,5.11,5.11,0,0,0-3.32-.93Z"/><path class="cls-4" d="M189,75.25V56.48h1.62V75.25Z"/><path class="cls-4" d="M206.27,75.25V57.84h-7V56.48h15.58v1.36h-7V75.25Z"/><path class="cls-4" d="M218,75.25l8.18-18.93h.61L235,75.25h-1.58l-2.78-6.53h-8.25l-2.76,6.53Zm4.88-7.8h7.21l-3.6-8.52Z"/><path class="cls-4" d="M242.72,75.25V56.48h1.57V74h8.84v1.26Z"/><path class="cls-4" d="M261.9,75.25V56.48h1.63V75.25Z"/><path class="cls-4" d="M279.19,75.25V57.84h-7V56.48h15.58v1.36h-7V75.25Z"/><path class="cls-4" d="M300.87,75.25V65.19l-7.28-8.71h1.86l6.19,7.42,6.18-7.42h1.87l-7.29,8.71V75.25Z"/></g></g></svg>